<svg xmlns="http://www.w3.org/2000/svg" viewBox="0 0 198.933 175.197"><g data-name="Layer 2"><g data-name="ART"><path d="M179.577 80.504l6.516 2.29s4.578 9.508 4.578 10.212-1.59 10.727-1.59 10.727-2.168 16.276-13.584 16.597c0 0-8.28 1.267-13.176-16.597l16.07-23.229M121.293 127.1l-3.982 21.915s-5.208 20.53-19.894 24.61c0 0-16.41 6.015-20.743-15.467 0 0-1.134-48.124 38.456-41.204z" fill="#3e4147"/><path d="M190.127 75.752l.005-.002a56.302 56.302 0 00-27.987-30.463c-7.92-2.621-21.082-5.448-27.194-5.4-18.338.145-34.74 5.7-42.192 7.265a9.04 9.04 0 00-5.533 3.637l-20.05 28.398.51.202c-2.848.628-5.693 1.275-8.583 1.838-4.87.95-12.32 2.946-20.265 5.147-9.33 2.583-12.915 3.391-22.302 5.587-5.367 1.255-11.845 2.244-14.598 7.653C-.182 103.78.847 112 5.441 114.287c-4.676 18.517 23.426 28.44 36.016 35.688 6.396 3.682 13.156 4.85 19.689 7.826a98.98 98.98 0 0011.368 4.413c4.235 1.315 5.131.81 7.067-3.115a105.654 105.654 0 004.686-12.412c2.988-8.637 6.705-17.205 15.51-21.795 4.296-2.24 10.034-3.95 13.917-.318 3.346 3.13 3.04 7.753 3.612 11.863.356 2.55-.483 7.369 1.64 8.529 2.81 1.535 8.802-3.529 11.324-5.111 11.725-7.357 23.274-14.938 34.478-23.044 2.484-1.797 8.061-3.98 9.663-6.594 1.983-3.238 1.633-10.625 3.243-14.639 1.151-2.868 3.663-10.528 7.594-7.676 1.622 1.176 3.067 6.564 3.37 8.412.292 1.79-.332 3.48.019 5.28a1.772 1.772 0 001.956-.791c5.076-4.87 3.968-18.979-.466-25.05z" fill="#cedd3e"/><path d="M75.709 163.742a12.209 12.209 0 01-3.456-.687 99.592 99.592 0 01-11.473-4.453 83.836 83.836 0 00-8.161-3.059 62.18 62.18 0 01-11.6-4.805c-2.126-1.223-4.74-2.546-7.508-3.945-13.725-6.941-32.453-16.414-29.077-32.065a9.357 9.357 0 01-3.666-5.144c-1.151-3.486-.996-7.653.386-10.37 2.694-5.292 8.553-6.612 13.722-7.777.493-.112.98-.221 1.459-.333l1.81-.423c8.08-1.888 11.769-2.75 20.458-5.156 7.596-2.103 15.317-4.184 20.331-5.162 2.413-.47 4.838-1.009 7.183-1.529l.283-.063a.813.813 0 01.057-.091l20.05-28.399a9.898 9.898 0 016.071-3.99c1.621-.34 3.703-.88 6.113-1.506 8.7-2.256 21.846-5.664 36.253-5.78h.163c6.409 0 19.48 2.853 27.315 5.446.266.11 20.193 8.74 28.5 30.898 4.61 6.47 5.567 20.835.374 25.997a2.649 2.649 0 01-2.82 1.113.88.88 0 01-.704-.696 10.353 10.353 0 01-.037-2.97 9.4 9.4 0 00.013-2.338c-.36-2.202-1.814-6.969-3.017-7.84a1.716 1.716 0 00-1.586-.4c-1.912.565-3.501 4.673-4.356 6.879-.115.299-.221.572-.318.812a30.155 30.155 0 00-1.329 6.653c-.413 3.184-.802 6.193-1.98 8.118-1.19 1.941-4.134 3.553-6.732 4.976a33.23 33.23 0 00-3.166 1.871c-10.038 7.263-21.01 14.595-34.526 23.077a42.46 42.46 0 00-1.745 1.195c-3.257 2.299-7.718 5.445-10.47 3.942-1.967-1.075-1.978-4.049-1.988-6.672a20.574 20.574 0 00-.1-2.507 57.824 57.824 0 01-.275-2.506c-.32-3.367-.622-6.548-3.067-8.836-3.56-3.328-8.984-1.59-12.909.455-8.686 4.528-12.215 13.007-15.084 21.304a306.66 306.66 0 00-.842 2.478 80.553 80.553 0 01-3.887 10.035c-1.495 3.03-2.608 4.253-4.662 4.253zm-7.3-84.773a.84.84 0 01.108.471.856.856 0 01-.642.808l-1.377.306c-2.355.522-4.792 1.063-7.227 1.538-4.955.966-12.636 3.037-20.198 5.13-8.724 2.416-12.423 3.28-20.528 5.174l-1.809.422c-.483.114-.975.224-1.473.336-5.025 1.133-10.222 2.304-12.54 6.86-1.164 2.288-1.281 5.996-.283 9.017a7.449 7.449 0 003.393 4.468.88.88 0 01.462 1.004c-3.707 14.678 14.625 23.95 28.01 30.719 2.79 1.41 5.425 2.743 7.592 3.99a60.837 60.837 0 0011.281 4.661A84.999 84.999 0 0161.511 157a97.98 97.98 0 0011.264 4.373c3.733 1.157 4.242.935 6.016-2.663a79.223 79.223 0 003.798-9.817c.28-.835.56-1.667.847-2.494 2.855-8.253 6.675-17.461 15.935-22.288 6.351-3.311 11.512-3.373 14.925-.18 2.932 2.744 3.28 6.41 3.617 9.955.077.82.154 1.634.265 2.43a21.563 21.563 0 01.118 2.744c.008 2.03.017 4.556 1.072 5.133 1.788.977 6.226-2.153 8.61-3.836.706-.499 1.33-.938 1.824-1.249 13.484-8.459 24.424-15.771 34.43-23.01a34.053 34.053 0 013.352-1.99c2.406-1.316 5.131-2.81 6.076-4.351.983-1.605 1.365-4.564 1.736-7.425a31.235 31.235 0 011.441-7.082c.094-.234.198-.5.31-.792 1.098-2.836 2.757-7.121 5.5-7.93a3.453 3.453 0 013.119.66c2.111 1.533 3.528 7.811 3.72 8.984a10.914 10.914 0 01.003 2.773 12.844 12.844 0 00-.074 1.754.71.71 0 00.395-.298.886.886 0 01.173-.234c4.7-4.506 3.673-18.09-.567-23.895a.886.886 0 01-.143-.303c-8.044-21.456-27.277-29.79-27.47-29.87-7.628-2.522-20.632-5.332-26.697-5.332h-.148c-14.19.113-27.21 3.489-35.825 5.723-2.432.63-4.531 1.175-6.194 1.524a8.14 8.14 0 00-4.994 3.283z" fill="#3e4147"/><path d="M181.717 104.53c.677-3.714-.79-7.215-3.209-7.825a36.305 36.305 0 00-1.09 5.889c-.403 3.12-.793 6.064-1.92 8.041.083.023.163.061.25.077 2.552.458 5.272-2.368 5.97-6.182z" fill="#fff"/><path d="M176.303 111.642a3.987 3.987 0 01-.712-.064 1.846 1.846 0 01-.282-.078.996.996 0 01-.585-.54.915.915 0 01.008-.76c1.055-1.848 1.44-4.833 1.812-7.719a36.846 36.846 0 011.125-6.043.876.876 0 011.055-.586c2.884.727 4.615 4.69 3.86 8.835-.734 4.013-3.46 6.955-6.28 6.955zm2.78-13.718a46.925 46.925 0 00-.793 4.783 32.2 32.2 0 01-1.437 7.102c1.761-.408 3.491-2.663 3.998-5.438.5-2.74-.29-5.425-1.768-6.447zm2.634 6.605z" fill="#3e4147"/><path d="M101.87 136.31a5.946 5.946 0 00-2.162-.398 8.402 8.402 0 00-4.575 1.519 15.434 15.434 0 00-5.652 7.36c-2.467 6.368-.924 12.924 3.44 14.615 4.365 1.692 9.922-2.115 12.388-8.482a15.432 15.432 0 00.783-9.246 7.35 7.35 0 00-4.222-5.369z" fill="#fff"/><path d="M95.112 160.692a6.919 6.919 0 01-2.51-.464c-4.815-1.868-6.584-8.935-3.942-15.756a16.322 16.322 0 015.989-7.777 8.288 8.288 0 017.54-1.207 8.202 8.202 0 014.757 5.973 16.314 16.314 0 01-.816 9.781 16.48 16.48 0 01-5.805 7.671 9.293 9.293 0 01-5.213 1.78zm4.596-23.9a7.57 7.57 0 00-4.091 1.374 14.562 14.562 0 00-5.315 6.942c-2.291 5.915-.974 11.961 2.937 13.477 1.832.71 3.994.31 6.09-1.124a14.717 14.717 0 005.16-6.856 14.551 14.551 0 00.75-8.71 6.503 6.503 0 00-3.687-4.764v-.001a5.071 5.071 0 00-1.844-.338z" fill="#3e4147"/><path d="M60.665 158.856a83.584 83.584 0 00-8.135-3.05 62.347 62.347 0 01-11.65-4.827c-2.12-1.22-4.73-2.54-7.495-3.938-10.828-5.476-24.744-12.521-28.597-22.954-2.294 1.928-3.067 4.928-2.388 9.408.56 3.709 12.603 13.466 17.137 17.14 16.407 13.054 48.16 19.192 50.864 18.746a6.552 6.552 0 002.467-2.658c.396-.753.902-1.514 1.39-2.251.127-.19.239-.369.36-.554a17.141 17.141 0 01-2.447-.597 100.124 100.124 0 01-11.506-4.465z" fill="#fff"/><path d="M70.157 170.273c-4.566 0-35.128-6.187-51.169-18.949-8.337-6.757-16.92-14.134-17.459-17.697-.728-4.812.127-8.057 2.693-10.214a.865.865 0 01.792-.177.878.878 0 01.6.546c3.736 10.116 17.283 16.968 28.168 22.474 2.787 1.409 5.402 2.731 7.536 3.96a61.703 61.703 0 0011.489 4.755 84.095 84.095 0 018.223 3.084 99.38 99.38 0 0011.402 4.425 16.422 16.422 0 002.32.568.881.881 0 01.602 1.354l-.364.558c-.492.745-.974 1.474-1.342 2.173a7.334 7.334 0 01-2.897 3.055.856.856 0 01-.207.062 2.506 2.506 0 01-.387.023zM4.483 125.66c-1.356 1.729-1.74 4.217-1.212 7.704.337 2.237 5.994 7.816 16.813 16.582 16.06 12.777 46.751 18.86 50.064 18.58a6.204 6.204 0 001.942-2.213c.32-.607.698-1.207 1.082-1.793a23.404 23.404 0 01-1.262-.357 100.99 100.99 0 01-11.61-4.506 83.018 83.018 0 00-8.05-3.014 62.977 62.977 0 01-11.81-4.9c-2.094-1.205-4.688-2.517-7.435-3.906-10.733-5.429-23.966-12.122-28.522-22.177z" fill="#3e4147"/><path d="M197.92 90.078a3.026 3.026 0 00-.536-2.915 2.225 2.225 0 00-2.225-.217 1.11 1.11 0 01-.196.024c.087.917.138 1.819.146 2.681a26.792 26.792 0 01-.474 5.271c1.6-.54 2.619-2.047 3.285-4.844z" fill="#fff"/><path d="M194.635 95.804a.88.88 0 01-.864-1.051 26.206 26.206 0 00.457-5.094 30.941 30.941 0 00-.141-2.606.881.881 0 01.746-.954l.12-.012a2.893 2.893 0 013.025.427 3.824 3.824 0 01.798 3.768c-.737 3.096-1.963 4.835-3.86 5.475a.874.874 0 01-.28.047zm1.27-8.142c.05.693.079 1.358.084 1.982a28.492 28.492 0 01-.167 3.322 8.769 8.769 0 001.241-3.092 2.227 2.227 0 00-.273-2.062 1.058 1.058 0 00-.885-.15z" fill="#3e4147"/><path d="M54.925 140.165a4.174 4.174 0 003.611-1.568 10.063 10.063 0 002.411-5.325c.635-4.14-1.048-7.979-3.677-8.383a3.009 3.009 0 00-.457-.034c-2.483 0-4.965 3.028-5.564 6.928a10.067 10.067 0 00.702 5.803 4.177 4.177 0 002.974 2.579z" fill="#fff"/><path d="M55.391 141.081a3.996 3.996 0 01-.6-.046 5.022 5.022 0 01-3.634-3.068 10.948 10.948 0 01-.778-6.318c.705-4.592 3.89-8.11 7.025-7.63 3.154.484 5.133 4.695 4.413 9.387a10.944 10.944 0 01-2.637 5.791 5.272 5.272 0 01-3.789 1.884zm-.332-1.786a3.347 3.347 0 002.834-1.299 9.183 9.183 0 002.184-4.857c.553-3.606-.82-7.054-2.94-7.38-2.176-.336-4.467 2.571-5.018 6.158a9.187 9.187 0 00.626 5.289 3.346 3.346 0 002.314 2.089z" fill="#3e4147"/><path d="M5.828 111.551a3.695 3.695 0 003.18-1.388 9.027 9.027 0 002.16-4.775c.568-3.698-.918-7.124-3.246-7.482a2.664 2.664 0 00-.402-.03 3.914 3.914 0 00-2.779 1.42 9.74 9.74 0 00-1.531 9.976 3.682 3.682 0 002.618 2.28z" fill="#fff"/><path d="M6.233 112.463a3.576 3.576 0 01-.54-.041h.001a4.522 4.522 0 01-3.278-2.77 10.613 10.613 0 011.682-10.958 4.506 4.506 0 013.958-1.658c2.847.438 4.633 4.244 3.982 8.486a9.914 9.914 0 01-2.386 5.242 4.763 4.763 0 01-3.419 1.699zm1.288-13.706a3.095 3.095 0 00-2.137 1.14 8.871 8.871 0 00-1.38 8.996 2.852 2.852 0 001.957 1.789 2.861 2.861 0 002.405-1.12 8.15 8.15 0 001.932-4.307c.487-3.171-.686-6.198-2.51-6.479a1.764 1.764 0 00-.268-.02z" fill="#3e4147"/><path d="M12.357 113.793c-.33 1.527-.133 4.604.525 8.23.62 1.756 11.774 9.107 25.938 17.068l.465.266a9.212 9.212 0 002.415 1.11.825.825 0 00.55-.007c.4-.32.415-1.956.422-2.835l.004-.417c.009-.567.032-1.08.055-1.561a10.423 10.423 0 00-.367-4.103c-.685-2.174-4.343-4.307-6.764-5.718a91.316 91.316 0 01-1.069-.63c-1.877-1.131-3.73-2.332-5.52-3.494a99.164 99.164 0 00-10.837-6.392c-2.948-1.415-5.353-1.833-5.817-1.517z" fill="#fff"/><path d="M42.03 141.388a2.413 2.413 0 01-.515-.06 9.903 9.903 0 01-2.67-1.209l-.462-.264c-9.328-5.243-25.379-14.84-26.331-17.539a.87.87 0 01-.036-.135c-.688-3.79-.877-6.914-.52-8.574a.886.886 0 01.365-.543c1.202-.815 4.904.592 6.694 1.452a99.648 99.648 0 0110.935 6.448c1.686 1.094 3.598 2.334 5.496 3.478.32.193.678.402 1.057.623 2.69 1.568 6.373 3.715 7.16 6.215a11.256 11.256 0 01.407 4.407c-.022.474-.045.977-.053 1.534l-.005.414c-.015 1.941-.135 3.02-.75 3.512a1.21 1.21 0 01-.772.24zm-28.3-19.621c.722 1.337 9.892 7.772 25.521 16.556l.47.269a10.06 10.06 0 001.966.963 14.332 14.332 0 00.105-1.937l.004-.42c.008-.58.032-1.101.055-1.593a9.614 9.614 0 00-.327-3.796c-.583-1.85-4.204-3.961-6.367-5.222a85.73 85.73 0 01-1.08-.636c-1.923-1.16-3.847-2.409-5.545-3.51a98.431 98.431 0 00-10.739-6.337 15.041 15.041 0 00-4.666-1.52 30.093 30.093 0 00.603 7.183zM92.672 175.197a15.093 15.093 0 01-5.479-1.011c-4.81-1.865-8.43-6.127-10.194-12.003a.88.88 0 011.687-.506c1.605 5.344 4.852 9.203 9.144 10.866 9.563 3.707 21.635-4.354 26.91-17.965a35.903 35.903 0 002.385-10.531.88.88 0 011.757.119 37.67 37.67 0 01-2.5 11.049c-4.675 12.065-14.51 19.982-23.71 19.982z" fill="#3e4147"/><path d="M95.047 161.836a7.875 7.875 0 01-2.863-.528c-2.675-1.037-4.615-3.44-5.462-6.768a17.478 17.478 0 01.859-10.486c2.874-7.416 9.617-11.745 15.026-9.647 2.676 1.037 4.615 3.44 5.462 6.768a17.478 17.478 0 01-.859 10.486c-2.382 6.15-7.425 10.175-12.163 10.175zM99.7 135.63c-4.008 0-8.364 3.605-10.478 9.06a15.71 15.71 0 00-.793 9.414 7.618 7.618 0 004.39 5.56c4.51 1.749 10.226-2.13 12.75-8.64a15.71 15.71 0 00.793-9.416 7.618 7.618 0 00-4.39-5.56 6.237 6.237 0 00-2.272-.418zM175.59 121.213a9.667 9.667 0 01-1.731-.157 10.948 10.948 0 01-7.27-5.35.88.88 0 111.503-.917 9.101 9.101 0 006.083 4.534c2.855.526 5.847-.573 8.428-3.083a19.69 19.69 0 005.325-10.576 22.434 22.434 0 00.37-4.038.881.881 0 01.88-.882.881.881 0 01.88.88 24.26 24.26 0 01-.397 4.357 21.46 21.46 0 01-5.83 11.522 11.92 11.92 0 01-8.241 3.71z" fill="#3e4147"/><path d="M176.296 112.8a5.094 5.094 0 01-.915-.082 5.267 5.267 0 01-2.164-.937.88.88 0 111.035-1.424 3.524 3.524 0 001.445.628c2.728.501 5.557-2.373 6.293-6.405a9.302 9.302 0 00-.58-5.561 4.349 4.349 0 00-3.042-2.655 3.74 3.74 0 00-.697-.054h-.021a.88.88 0 01-.02-1.76 5.228 5.228 0 011.055.082 6.05 6.05 0 014.318 3.64 11.07 11.07 0 01.72 6.624c-.836 4.574-4.053 7.905-7.427 7.905z" fill="#3e4147"/><ellipse cx="56.098" cy="132.527" rx="8.885" ry="6.065" transform="rotate(-81.271 56.098 132.527)" fill="#fff8e9"/><path d="M55.4 142.24a5.166 5.166 0 01-.784-.06 6.13 6.13 0 01-4.504-3.713 12.117 12.117 0 01-.879-6.994c.817-5.323 4.565-9.187 8.347-8.599 3.785.582 6.2 5.385 5.382 10.707a12.11 12.11 0 01-2.936 6.408 6.391 6.391 0 01-4.627 2.251zm1.396-17.665c-2.648 0-5.193 3.069-5.822 7.165a10.345 10.345 0 00.726 5.966 4.439 4.439 0 003.183 2.733 4.458 4.458 0 003.857-1.652 10.344 10.344 0 002.482-5.474c.67-4.362-1.084-8.264-3.91-8.699a3.406 3.406 0 00-.516-.039z" fill="#3e4147"/><ellipse cx="6.875" cy="104.729" rx="8.061" ry="5.502" transform="rotate(-81.271 6.875 104.729)" fill="#fff8e9"/><path d="M6.243 113.622a4.76 4.76 0 01-.725-.056 5.642 5.642 0 01-4.147-3.413 11.761 11.761 0 011.88-12.249 5.635 5.635 0 014.981-2.012c3.478.533 5.7 4.932 4.952 9.806a11.071 11.071 0 01-2.685 5.857 5.879 5.879 0 01-4.256 2.067zM7.52 97.598a4.18 4.18 0 00-2.982 1.508 10.012 10.012 0 00-1.579 10.287 3.95 3.95 0 002.827 2.433 3.958 3.958 0 003.426-1.473 9.3 9.3 0 002.231-4.922c.59-3.848-1.002-7.42-3.478-7.8a2.954 2.954 0 00-.445-.033zm4.793 7.966z" fill="#3e4147"/><path d="M11.223 113.55c-.475 2.21.07 6.206.519 8.68.595 3.28 25.008 17.027 26.51 17.872a12.287 12.287 0 003.203 1.498c2.499.54 2.35-2.303 2.38-4.375.034-2.368.35-3.756-.366-6.029-.936-2.972-5.773-5.446-8.34-6.992-5.513-3.322-10.623-7.137-16.453-9.938-1.946-.935-6.977-2.927-7.453-.717z" fill="#d8e9f7"/><path d="M42.037 142.548a3.622 3.622 0 01-.768-.088 10.835 10.835 0 01-3-1.335l-.45-.256c-9.812-5.522-26.36-15.266-26.944-18.482-.419-2.31-1.043-6.556-.513-9.023a1.982 1.982 0 011.101-1.408c2.04-1.001 6.328.908 7.594 1.516a100.563 100.563 0 0111.06 6.517c1.778 1.154 3.617 2.347 5.466 3.461.317.19.669.396 1.044.614 2.853 1.663 6.76 3.94 7.682 6.868a12.353 12.353 0 01.46 4.81c-.022.461-.045.952-.053 1.495l-.005.406c-.014 1.632-.03 3.484-1.187 4.41a2.315 2.315 0 01-1.487.495zm-29.953-28.815c-.336 1.563-.14 4.68.524 8.34.416 1.732 11.383 8.992 26.075 17.261l.464.265a9.418 9.418 0 002.495 1.14.964.964 0 00.782-.061c.504-.404.518-1.996.527-3.051l.004-.415c.008-.564.032-1.073.054-1.552a10.638 10.638 0 00-.38-4.199c-.717-2.277-4.43-4.442-6.889-5.875-.383-.224-.742-.433-1.065-.628-1.875-1.129-3.726-2.33-5.517-3.492a99.406 99.406 0 00-10.864-6.406c-2.637-1.267-5.24-1.924-6.056-1.523a.238.238 0 00-.154.196zM79.732 78.121c-1.107-.23-2.432.362-3.512.635-2.244.568-46.122 15.39-48.164 16.672-.824.518-1.956 3.752-1.816 5.009.126 1.14.458 7.21 1.247 7.713 1.641 1.043 6.564 4.412 9.461 5.544 2.157.842 13.908 2.792 16.2 2.58 3.85-.358 6.167-1.596 8.98-2.58 3.875-1.356 19.925-7.546 24.124-9.33 4.754-2.02 19.073-6.111 22.864-7.205 3.25-.937 3.103-2.404 6.408-3.13 1.664-.365 4.533-.555 5.847-1.695 4.527-3.927-16.716-10.208-19.024-10.847-4.481-1.241-9.134-1.865-13.662-2.85a30.268 30.268 0 00-4.803-.592c-.728-.038-2.853-.01-4.15.076z" fill="#3e4147"/><path d="M70.043 171.419c-6.255.001-35.816-6.491-51.784-19.195C6.043 142.326.866 136.99.383 133.8c-.834-5.515.352-9.348 3.625-11.72a.88.88 0 011.033 1.426c-2.726 1.975-3.653 5.163-2.916 10.03.51 3.382 9.48 11.03 17.237 17.315 16.591 13.2 48.558 19.333 51.088 18.802a6.731 6.731 0 002.664-2.801c.39-.74.89-1.494 1.374-2.223a19.899 19.899 0 001.39-2.3.88.88 0 011.592.752 21.328 21.328 0 01-1.515 2.52c-.46.694-.934 1.41-1.283 2.07a8.336 8.336 0 01-3.61 3.63 3.028 3.028 0 01-1.019.117zM106.2 123.162a.879.879 0 01-.723-.378 4.953 4.953 0 01-.968-3.86c.532-2.712 3.484-4.624 5.856-6.161l.53-.344a89.674 89.674 0 0113.849-6.876l1.182-.506c4.394-1.885 9.027-4 14.579-6.658a137.501 137.501 0 0113.212-5.225c2.262-.805 4.601-1.638 6.84-2.507a38.15 38.15 0 001.552-.659 14.987 14.987 0 015.345-1.607 1.726 1.726 0 011.433.643c1.184 1.348 1.3 5.19.344 11.422-.31 2.02-1.155 9.793-1.367 11.893-.03.29-.03.593-.031.892-.001.315-.003.627-.028.927-.11 1.319-.16 1.97-1.05 1.923-.145-.01-.866-.105-.82-1.085a.864.864 0 01.047-.251c.028-.276.061-.645.068-.732.021-.254.021-.52.022-.788.002-.358.005-.717.04-1.064.175-1.731 1.042-9.791 1.379-11.982 1.093-7.126.487-9.84.023-10.037a13.758 13.758 0 00-4.695 1.458c-.564.249-1.11.489-1.625.689-2.262.878-4.612 1.715-6.886 2.524a136.087 136.087 0 00-13.043 5.154c-5.575 2.669-10.228 4.794-14.645 6.69l-1.184.505a88.452 88.452 0 00-13.577 6.73l-.537.35c-2.092 1.355-4.697 3.042-5.085 5.022a3.23 3.23 0 00.684 2.514.88.88 0 01-.721 1.384z" fill="#3e4147"/><path d="M143.9 132.236a.888.888 0 01-.188-.02c-.785-.173-.717-.742-.595-1.777 2.844-24.052 1.801-39.808-2.72-41.12a.88.88 0 11.49-1.692c3.998 1.16 7.934 9.565 3.979 43.019-.042.353-.071.593-.082.704a.886.886 0 01-.883.886z" fill="#3e4147"/><path d="M94.147 52.426c6.23 1.362 21.777 4.596 35.03 5.988a4.357 4.357 0 013.813 5.232c-1.968 9.385-6.448 29.43-9.253 31.686 0 0-20.285-.642-53.097-14.779L89.674 54.14a4.361 4.361 0 014.473-1.714z" fill="#357fc1"/><path d="M123.737 96.213l-.028-.001c-.204-.007-20.83-.81-53.417-14.85a.88.88 0 01-.366-1.323L88.96 53.625a5.25 5.25 0 015.375-2.06c6.094 1.333 21.698 4.582 34.934 5.973a5.239 5.239 0 014.583 6.29c-2.82 13.443-6.768 29.943-9.563 32.19a.886.886 0 01-.552.195zm-51.74-16.036c29.315 12.48 48.553 14.082 51.402 14.256 1.835-2.153 5.14-13.856 8.73-30.967a3.477 3.477 0 00-3.044-4.176c-13.323-1.4-29.003-4.665-35.126-6.004a3.472 3.472 0 00-3.57 1.368z" fill="#3e4147"/><path d="M138.726 59.902s-4.93 34.094-3.522 35.008c0 0 18.538-6.063 32.137-14.406 0 0-3.932-20.25-10.11-25.884z" fill="#357fc1"/><path d="M135.204 95.79a.888.888 0 01-.479-.142c-.563-.365-1.882-1.22 3.129-35.872a.881.881 0 01.63-.72l18.504-5.284a.886.886 0 01.835.197c6.322 5.764 10.22 25.529 10.382 26.367a.88.88 0 01-.404.918c-13.53 8.302-32.137 14.43-32.323 14.492a.878.878 0 01-.274.044zm4.312-35.197c-2.026 14.074-3.873 29.528-3.688 33.176 3.806-1.306 18.927-6.696 30.526-13.696-.69-3.294-4.245-19.238-9.37-24.468z" fill="#3e4147"/><path d="M161.368 52.887s7.784 14.224 9.545 25.142l10.97-7.196s-7.236-16.213-20.515-17.946z" fill="#357fc1"/><path d="M170.913 78.91a.882.882 0 01-.87-.741c-1.715-10.64-9.37-24.719-9.448-24.86a.88.88 0 01.886-1.295c13.612 1.775 20.902 17.78 21.206 18.46a.881.881 0 01-.321 1.095l-10.97 7.196a.88.88 0 01-.483.144zm-7.92-24.83c1.986 3.86 6.844 13.86 8.55 22.482l9.21-6.04c-1.448-2.867-7.67-14.03-17.76-16.442z" fill="#3e4147"/><path d="M21.394 65.478s33.061 4.481 44 17.384l43.722 12.566-2.635-6.167S61.071 58.435 21.394 64.07" fill="#b5c933"/><path d="M109.116 96.31a.867.867 0 01-.243-.036L65.151 83.708a.876.876 0 01-.428-.276C54.129 70.936 21.603 66.396 21.276 66.35a.88.88 0 01-.41-1.577.881.881 0 01.404-1.577c39.56-5.601 85.25 25.025 85.706 25.335a.883.883 0 01.315.383l2.635 6.168a.88.88 0 01-.81 1.227zM65.89 82.089L107.58 94.07l-1.804-4.222c-3.375-2.228-45.83-29.636-83.061-25.066 6.117.946 33.067 5.696 43.176 17.307z" fill="#3e4147"/><path d="M118.652 95.207s-21.519-28.02-79.814-36.035c0 0-17.914-2.38-20.261 5.602 0 0-2.583 15.57 26.765 8.255 0 0 22.042-3.896 64.153 23.675z" fill="#cedd3e"/><path d="M109.496 97.585a.88.88 0 01-.483-.145c-41.237-26.998-63.3-23.58-63.52-23.544-12.205 3.044-20.618 2.574-24.937-1.415a9.215 9.215 0 01-2.848-7.852.934.934 0 01.024-.104c2.532-8.607 20.46-6.328 21.222-6.226 57.986 7.973 80.179 36.089 80.396 36.372a.88.88 0 01-.556 1.405l-9.156 1.497a.872.872 0 01-.142.012zM48.704 71.943c7.822 0 28.309 2.505 60.987 23.837l7.27-1.188c-4.839-5.332-27.763-27.607-78.243-34.548-.168-.022-17.098-2.18-19.28 4.92a7.433 7.433 0 002.333 6.242c2.658 2.436 8.867 4.581 23.358.968a21.917 21.917 0 013.575-.23z" fill="#3e4147"/><path d="M77.396 99.427c0 4.402-8.05 7.97-17.982 7.97s-17.981-3.568-17.981-7.97c0-1.872-.853-8.911 1.585-10.271 3.294-1.838 10.69 2.302 16.396 2.302 6.552 0 13.793-4.587 16.937-2.267 1.621 1.197 1.045 8.739 1.045 10.236z" fill="#af96c1"/><path d="M59.415 108.277c-10.578 0-18.863-3.887-18.863-8.85 0-.295-.023-.725-.05-1.242-.208-4.061-.236-8.502 2.087-9.797 2.19-1.222 5.594-.277 9.198.723a30.586 30.586 0 007.628 1.466A31.17 31.17 0 0067.7 88.96c3.778-1.099 7.043-2.049 9.173-.476 1.455 1.073 1.626 4.586 1.433 9.907-.016.455-.03.815-.03 1.038 0 4.962-8.285 8.85-18.862 8.85zM45.184 89.562a3.568 3.568 0 00-1.737.363c-1.56.87-1.288 6.174-1.186 8.17.03.554.052 1.015.052 1.333 0 3.423 6.872 7.088 17.102 7.088s17.101-3.665 17.101-7.088c0-.237.014-.62.031-1.103.244-6.69-.346-8.15-.719-8.425-1.43-1.055-4.444-.18-7.636.75a32.49 32.49 0 01-8.777 1.689 31.763 31.763 0 01-8.1-1.531 26.306 26.306 0 00-6.131-1.246z" fill="#3e4147"/><ellipse cx="59.514" cy="91.458" rx="17.982" ry="7.969" fill="#c5a7d4"/><path d="M59.514 100.309c-10.577 0-18.862-3.888-18.862-8.851 0-4.962 8.285-8.85 18.862-8.85 10.577 0 18.862 3.888 18.862 8.85 0 4.963-8.285 8.85-18.862 8.85zm0-15.939c-10.23 0-17.101 3.665-17.101 7.088 0 3.424 6.871 7.089 17.1 7.089s17.102-3.665 17.102-7.089c0-3.423-6.872-7.088-17.101-7.088z" fill="#3e4147"/><ellipse cx="59.839" cy="89.503" rx="4.754" ry="1.955" fill="#357fc1"/><path d="M59.84 92.339c-2.8 0-5.635-.975-5.635-2.836 0-3.723 11.27-3.723 11.27 0 0 1.861-2.835 2.836-5.636 2.836zm0-3.91c-2.48 0-3.795.786-3.876 1.085.081.277 1.396 1.063 3.875 1.063 2.45 0 3.762-.767 3.872-1.074-.11-.307-1.422-1.074-3.872-1.074zm3.874 1.086z" fill="#3e4147"/><path d="M126.389 62.022l-30.854-5.67a3.787 3.787 0 00-3.828 1.613l-2.321 3.456a3.787 3.787 0 002.286 5.8l31.425 7.307a3.787 3.787 0 004.44-2.459l1.749-5.092a3.787 3.787 0 00-2.897-4.955z" fill="#4495d7"/><path d="M43.556 130.269l-1.563-.811c7.628-14.692 22.438-18.251 23.064-18.395l.396 1.715c-.145.034-14.655 3.541-21.897 17.49zM14.035 112.74l-1.717-.39c2.661-11.74 15.75-16.291 16.307-16.48l.564 1.668c-.127.043-12.713 4.435-15.154 15.201z" fill="#3e4147"/><path d="M52.922 102.37s-13.728 4.126-16.47-1.797a.237.237 0 00-.19-.14c-1.973-.196-25.064-2.841-20.917-18.934a.244.244 0 00-.052-.221c-.937-1.068-8.9-10.944 12.44-16.024a.246.246 0 00.117-.418c-2.414-2.173-15.666-15.601 5.145-31.94 0 0 12.671-10.427 18.214-.36a.241.241 0 00.41.035c1.538-2.208 10.985-14.723 23.7-8.646 0 0 15.412 4.076 10.666 16.356a.272.272 0 01-.031.059c-.475.675-9.662 13.45-21.14 7.373a.242.242 0 00-.36.206c-.016 1.894-.622 9.755-9.635 9.72a.244.244 0 00-.163.435c1.925 1.504 7.117 6.705 1.107 15.562a.24.24 0 00.053.336c2.51 1.748 28.171 20.326-2.894 28.399z" fill="#c4d7e9"/><path d="M43.907 104.64c-3.347 0-6.652-.756-8.088-3.369-2.611-.3-14.734-2.058-19.697-9.164a12.536 12.536 0 01-1.709-10.51c-.855-1.06-3.055-4.262-1.894-7.91 1.25-3.924 5.921-6.954 13.893-9.013-2.121-2.164-6.035-7.086-5.81-13.748.215-6.42 4.203-12.719 11.85-18.723.281-.232 7.325-5.962 13.518-4.768a8.344 8.344 0 015.507 3.84 29.763 29.763 0 017.327-6.877c5.452-3.479 11.266-3.928 16.822-1.302.906.254 8.18 2.436 11.027 8.017a11.245 11.245 0 01.153 9.485l-.135.252c-.394.56-9.633 13.438-21.39 8.074-.246 2.718-1.617 8.789-8.9 9.522 2.275 2.345 5.398 7.46.452 15.167 3.195 2.308 13.488 10.429 12.067 18.368-.889 4.971-6.185 8.752-15.741 11.238a36.482 36.482 0 01-9.252 1.422zm.3-75.608c-5.056 0-10.592 4.493-10.652 4.543-7.235 5.68-10.996 11.534-11.194 17.41-.235 6.956 4.593 11.86 6.078 13.197a1.113 1.113 0 01.334 1.105 1.132 1.132 0 01-.836.823c-7.898 1.88-12.65 4.685-13.74 8.112-.995 3.125 1.29 5.941 1.758 6.474a1.124 1.124 0 01.243 1.022 10.945 10.945 0 001.367 9.38c4.809 6.884 17.369 8.319 18.785 8.46a1.116 1.116 0 01.904.65c1.98 4.28 11.799 2.404 15.415 1.32l.031-.01c8.842-2.296 13.71-5.61 14.467-9.846 1.349-7.54-10.499-16.034-11.854-16.978a1.127 1.127 0 01-.28-1.551c5.467-8.055 1.179-12.737-.918-14.375a1.12 1.12 0 01-.37-1.25 1.136 1.136 0 011.073-.76h.06c8.002 0 8.678-6.768 8.695-8.846a1.108 1.108 0 01.544-.951 1.124 1.124 0 011.11-.025c10.544 5.58 19.194-5.974 19.963-7.041a9.541 9.541 0 00-.103-7.975c-2.61-5.127-9.921-7.125-9.994-7.145l-.155-.056c-11.976-5.724-20.925 5.955-22.596 8.354a1.101 1.101 0 01-.969.476 1.129 1.129 0 01-.936-.59 6.858 6.858 0 00-4.795-3.795 7.646 7.646 0 00-1.436-.132zm-8.035 72.278h.01zm-.518-.367l.003.007zm20.664-27.695l.002.002zm-5.42-41.182l-.003.003z" fill="#3e4147"/><ellipse cx="79.371" cy="10.856" rx="8.836" ry="6.264" fill="#c4d7e9"/><path d="M79.37 18.001c-5.357 0-9.716-3.205-9.716-7.145s4.36-7.144 9.717-7.144 9.716 3.205 9.716 7.144-4.359 7.145-9.716 7.145zm0-12.527c-4.386 0-7.955 2.414-7.955 5.382s3.569 5.383 7.956 5.383 7.955-2.414 7.955-5.383-3.569-5.382-7.955-5.382z" fill="#3e4147"/><ellipse cx="104.057" cy="4.902" rx="5.037" ry="4.022" fill="#c4d7e9"/><path d="M104.057 9.805c-3.263 0-5.918-2.2-5.918-4.903S100.794 0 104.057 0s5.917 2.2 5.917 4.902-2.655 4.903-5.917 4.903zm0-8.043c-2.292 0-4.157 1.408-4.157 3.14s1.865 3.141 4.157 3.141 4.156-1.408 4.156-3.14-1.864-3.141-4.156-3.141z" fill="#3e4147"/></g></g></svg>
