<svg width="21" height="14" viewBox="0 0 21 14" fill="none" xmlns="http://www.w3.org/2000/svg">
<path fill-rule="evenodd" clip-rule="evenodd" d="M9.40614 3.86837C7.03993 1.80974 3.45306 2.05907 1.39461 4.42529C-0.664015 6.7915 -0.414686 10.3784 1.95153 12.4368C4.31774 14.4954 7.90461 14.2459 9.96306 11.8799C10.4502 11.3199 10.8229 10.6698 11.06 9.96646C13.4268 12.0263 17.0153 11.7774 19.075 9.41062C21.1347 7.04369 20.8857 3.45539 18.519 1.39551C17.4575 0.47186 16.0911 -0.0251865 14.6842 0.000983218C12.2848 0.0466907 10.1728 1.59429 9.40614 3.86837ZM2.76942 8.20484C2.73967 6.59953 4.01679 5.27401 5.6221 5.24426C7.22742 5.2145 8.55276 6.4918 8.58251 8.09694C8.61406 9.70046 7.33981 11.0258 5.73628 11.0573C4.12451 11.0873 2.79918 9.80998 2.76942 8.20484ZM11.8835 5.73431C11.8539 4.12899 13.131 2.80348 14.7363 2.77372C16.3417 2.74415 17.667 4.02127 17.6968 5.62658C17.7267 7.23172 16.4496 8.55724 14.8443 8.58699C13.2388 8.61675 11.9132 7.33963 11.8835 5.73431Z" fill="#48A1E3"/>
</svg>
